<svg xmlns="http://www.w3.org/2000/svg" xmlns:xlink="http://www.w3.org/1999/xlink" width="400" height="400" viewBox="0 0 400 400"><defs><linearGradient id="gradient-18" x1="0%" y1="0%" x2="100%" y2="0%" gradientTransform="rotate(109.6, 0.5, 0.5)">       <stop offset="11.2%" stop-color="rgba(20, 30, 48, 1)"/>       <stop offset="91.1%" stop-color="rgba(36, 59, 85, 1)"/>     </linearGradient></defs>
<g data-name="business_name_slogan_group" transform=" translate(-0.00000762939453125, -57.45948028564453)"><g data-name="business_name" fill="#FFFFFF" data="id:5" transform="translate(68.3764114052386,213.73448493562438) scale(1.1804806454900774)"><path d="M19.1,23.48q3.54,2.88,3.54,10.6t-3.58,10.82t-8.74,3.1l-5.88,0l0-27.4l5.44,0q5.68,0,9.22,2.88z M6.84,22.6l0,23.4l3.64,0q9.64,0,9.64-11.92q0-4.72-1.4-7.24t-3.54-3.38t-4.98-0.86l-3.36,0z M42.94,45.72q0.42,0.72,1.34,1.08l-0.52,1.64q-1.44-0.28-2.22-1.08t-1.02-2.44q-2.16,3.52-6.52,3.52q-3,0-4.74-1.7t-1.74-4.54q0-3.24,2.3-5t6.38-1.76l4,0l0-2.04q0-2.52-1.12-3.66t-3.72-1.14q-2.4,0-5.68,1.2l-0.6-1.76q3.52-1.4,6.6-1.4q6.84,0,6.84,6.64l0,10.08q0,1.64,0.42,2.36z M40.2,42.88l0-5.76l-3.64,0q-3.2,0-4.88,1.24t-1.68,3.72q0,2.16,1.16,3.32t3.24,1.16q3.76,0,5.8-3.68z M53.28,27.08l0,20.92l-2.32,0l0-20.92l2.32,0z M53.36,18.36q0.48,0.48,0.48,1.2t-0.48,1.2t-1.28,0.48q-0.76,0-1.24-0.48t-0.48-1.2t0.48-1.2t1.24-0.48q0.8,0,1.28,0.48z M62.54,47.44q-0.98-1-0.98-2.96l0-25.92l2.32-0.28l0,26.12q0,2.04,1.68,2.04q0.84,0,1.44-0.28l0.64,1.72q-1.12,0.56-2.4,0.56q-1.72,0-2.7-1z M79.8,48.08q-0.84,2.44-1.84,4t-2.6,2.58t-4.12,1.5l-0.24-1.8q2.08-0.52,3.26-1.28t1.88-1.9t1.42-3.18l-0.8,0l-7.28-20.92l2.52,0l6.32,19.2l6.2-19.2l2.44,0z  M111.08,35.72l-5.48,0l0,12.28l-2.4,0l0-27.4l6.64,0q9.76,0,9.76,7.44q0,2.96-1.56,4.72t-4.56,2.52l7.52,12.72l-2.84,0z M110.16,33.76q6.88,0,6.88-5.72q0-2.8-1.72-4.14t-5.56-1.34l-4.16,0l0,11.2l4.56,0z M141.36,38.44l-13.96,0q0.2,4.08,1.94,6.06t4.58,1.98q1.64,0,2.9-0.5t2.74-1.58l1.08,1.48q-1.56,1.28-3.2,1.92t-3.64,0.64q-4.16,0-6.52-2.84t-2.36-7.88q0-3.32,1.02-5.82t2.92-3.88t4.42-1.38q4,0,6.08,2.7t2.08,7.42q0,0.88-0.08,1.68z M139.16,36.04q0-3.52-1.46-5.5t-4.34-1.98q-2.6,0-4.2,2t-1.76,6.08l11.76,0l0-0.6z M162.38,29.46q1.9,2.82,1.9,7.98q0,5.04-2.06,8.02t-5.9,2.98q-1.88,0-3.4-0.78t-2.56-2.1l0,10.32l-2.32,0.32l0-29.12l2,0l0.2,3.04q1.16-1.64,2.82-2.56t3.62-0.92q3.8,0,5.7,2.82z M160.28,44.2q1.52-2.28,1.52-6.76q0-8.88-5.56-8.88q-1.88,0-3.26,0.96t-2.62,2.64l0,11.12q2.08,3.2,5.52,3.2q2.88,0,4.4-2.28z M184.98,29.5q2.34,2.86,2.34,7.98q0,5.08-2.38,8.02t-6.5,2.94q-4.16,0-6.5-2.9t-2.34-7.98q0-3.32,1.08-5.8t3.08-3.8t4.72-1.32q4.16,0,6.5,2.86z M173.76,30.88q-1.68,2.28-1.68,6.68q0,4.36,1.66,6.64t4.7,2.28t4.74-2.28t1.7-6.72q0-4.36-1.66-6.62t-4.74-2.26q-3.04,0-4.72,2.28z M204.32,26.88l-0.44,2.2q-0.88-0.24-1.84-0.24q-2.12,0-3.42,1.54t-2.18,4.82l0,12.8l-2.32,0l0-20.92l2,0l0.2,4.68q0.84-2.6,2.3-3.86t3.62-1.26q1.24,0,2.08,0.24z M218.56,47.12q-2,1.32-4.4,1.32t-3.76-1.42t-1.36-4.1l0-13.96l-3.52,0l0-1.88l3.52,0l0-5l2.32-0.28l0,5.28l5.4,0l-0.28,1.88l-5.12,0l0,13.84q0,1.84,0.76,2.74t2.32,0.9q1.6,0,3.2-0.92z"/></g></g></svg>